<svg id="Layer_2" data-name="Layer 2" xmlns="http://www.w3.org/2000/svg" viewBox="0 0 499 389"><defs><style>.cls-1{fill:#ff7cc7;stroke:#fff;stroke-linecap:round;stroke-linejoin:round}</style></defs><path class="cls-1" d="M264.5 293.5v95l-33-18v-96l33 19zM217.5 261.5v42l-23-109v-41l23 108zM179.5 95.5v94l-117 69v-95l117-68zM47.5 164.5v95l-47-27v-95l47 27zM498.5 164.5v94l-219 130v-95l219-129z"/><path fill="#ff49b2" stroke="#fff" stroke-linecap="round" stroke-linejoin="round" d="M490.5 151.5l-218 129-41-24-37-178-9-4-131 77-46-26 212-125 41 24 37 177 9 4 137-80 46 26z"/><path fill="#fff" stroke="#fff" stroke-linecap="round" stroke-linejoin="round" d="M498.5 164.5l-219 129v95h-15v-95l-33-19v96l-14-67v-42l-23-108v41l-15-5v-94l-117 68v95l-15 1v-95l-47-27 8-12 46 26 131-77 9 4 37 178 41 24 218-129 8 13z"/></svg>