<svg id="Layer_2" data-name="Layer 2" xmlns="http://www.w3.org/2000/svg" viewBox="0 0 499 389"><defs><style>.cls-1{fill:#ff7cc7;}.cls-1,.cls-2,.cls-3{stroke:#fff;stroke-linecap:round;stroke-linejoin:round;}.cls-2{fill:#ff49b2;}.cls-3{fill:#fff;}</style></defs><title>z-logo-stroke-white</title><polygon class="cls-1" points="264.5 293.5 264.5 388.5 231.5 370.5 231.5 274.5 264.5 293.5"/><polygon class="cls-1" points="217.5 261.5 217.5 303.5 194.5 194.5 194.5 153.5 217.5 261.5"/><polygon class="cls-1" points="179.5 95.5 179.5 189.5 62.5 258.5 62.5 163.5 179.5 95.5"/><polygon class="cls-1" points="47.5 164.5 47.5 259.5 0.5 232.5 0.5 137.5 47.5 164.5"/><polygon class="cls-1" points="498.5 164.5 498.5 258.5 279.5 388.5 279.5 293.5 498.5 164.5"/><polygon class="cls-2" points="490.5 151.5 272.5 280.5 231.5 256.5 194.5 78.5 185.5 74.5 54.5 151.5 8.5 125.5 220.5 0.5 261.5 24.5 298.5 201.5 307.5 205.5 444.5 125.5 490.5 151.5"/><polygon class="cls-3" points="498.5 164.5 279.5 293.5 279.5 388.5 264.5 388.5 264.5 293.5 231.5 274.5 231.5 370.5 217.5 303.5 217.5 261.5 194.5 153.5 194.5 194.5 179.5 189.5 179.5 95.5 62.5 163.5 62.5 258.5 47.5 259.5 47.5 164.5 0.5 137.5 8.5 125.5 54.5 151.5 185.5 74.5 194.5 78.5 231.5 256.5 272.5 280.5 490.5 151.5 498.5 164.5"/></svg>
