<svg xmlns="http://www.w3.org/2000/svg" viewBox="0 0 134 134"><path d="M67 129c-34.2 0-62-27.8-62-62S32.8 5 67 5s62 27.8 62 62-27.8 62-62 62M67 0C30.1 0 0 30.1 0 67s30.1 67 67 67 67-30.1 67-67S103.9 0 67 0m20 15.2c.2-1.4-.7-2.6-2-2.9-1.8-.3-17.7-2.5-32.4 12.4-10.7 10.9-12.1 25.1-12.2 29.5-3.9 3.1-17 15.3-15.2 35.7 1.9 21.7 20.6 31.5 21.3 31.9.4.2.7.3 1.1.3.9 0 1.8-.5 2.2-1.4.6-1.2.1-2.7-1.1-3.4-.2-.1-17-8.9-18.7-27.9C28.3 69 43.6 58 44.3 57.5l1.1-.8v-1.3c0-.2-.2-15.9 10.8-27.2C69 15.1 82.6 17 84.1 17.2c1.3.2 2.6-.7 2.9-2M63.7 47c-1.5-.2-2.8.8-3 2.2L60 54c-.2 1.4.8 2.7 2.3 2.9h.4c1.3 0 2.5-.9 2.6-2.3L66 50c.2-1.5-.8-2.8-2.3-3m22 2c-1.5-.2-2.8.8-3 2.2L82 56c-.2 1.4.8 2.7 2.3 2.9h.4c1.3 0 2.5-.9 2.6-2.3L88 52c.2-1.5-.8-2.8-2.3-3" fill="#5DD15B"/></svg>
