<svg xmlns="http://www.w3.org/2000/svg" width="134" height="134" viewBox="0 0 134 134" fill="#FFFFFF">
    <path d="M67 129.02c-34.197 0-62.02-27.823-62.02-62.02C4.98 32.802 32.804 4.98 67 4.98S129.02 32.803 129.02 67c0 34.197-27.823 62.02-62.02 62.02M67 0C30.056 0 0 30.056 0 67s30.056 67 67 67 67-30.056 67-67S103.944 0 67 0"/>
    <path d="M86.964 15.172a2.498 2.498 0 0 0-2.035-2.884c-1.767-.3-17.675-2.52-32.329 12.429C41.89 35.64 40.54 49.838 40.387 54.21c-3.909 3.146-17.035 15.322-15.215 35.656 1.941 21.685 20.557 31.455 21.349 31.86.362.186.748.274 1.128.274.906 0 1.78-.499 2.22-1.365a2.504 2.504 0 0 0-1.087-3.362c-.17-.086-16.955-8.89-18.652-27.854-1.825-20.387 13.503-31.45 14.151-31.907l1.097-.771-.03-1.341c-.004-.158-.225-15.93 10.8-27.177C69.03 15.083 82.59 16.96 84.092 17.216a2.49 2.49 0 0 0 2.871-2.044"/>
    <path d="M63.698 47.024c-1.463-.195-2.802.803-3.002 2.231l-.671 4.778c-.2 1.429.82 2.746 2.277 2.942.123.017.245.025.366.025 1.31 0 2.452-.948 2.636-2.255l.67-4.779c.201-1.428-.818-2.745-2.276-2.942M85.698 49.025c-1.464-.198-2.802.803-3.002 2.23l-.671 4.78c-.2 1.427.82 2.744 2.277 2.94.123.017.245.025.366.025 1.31 0 2.452-.948 2.636-2.255l.67-4.778c.201-1.429-.818-2.746-2.276-2.942"/>
</svg>
