<svg xmlns="http://www.w3.org/2000/svg" viewBox="0 0 380 297"><g fill-rule="evenodd" clip-rule="evenodd"><path d="M364.3 105.6c-2.1-1-4.3-2-6.5-2.9-1.5-.8-2.5-2.1-3.1-3.2 2.6 10.3 5.2 20.5 7.8 30.8-6.4-12.4-7.7-14.9-17-32-.4.2-.8.1-1.1.1-3.6-1-7.5-1.7-11.5-2.4-.8 1.1-1.7 2.2-2.5 3.3-1.1 1.5-1.1 1.5 9.6 61.9-8.4-14-8.4-14-25.2-41.6-1-1.3-2-1.4-3.3-.4-3.8 3.4-7.7 6.8-12 10.2-1.4 1.1-2.6 4-1.2 6.4 14.8 24.6 32.3 47.4 48 71.5 1 1.3 1.8 1.3 3.2.4 3.5-3.4 6.9-6.9 10.1-10.6 1.7-2.2 1.7-2.2-10.4-62.4 8.4 14.6 8.7 15.1 23.1 41.1.6 1 .6 1 1.7 1 .1-.1.3-.4.4-.5 1.9-3.4 3.6-6.8 4.9-10.1 1-2.4-6.9-31.7-15-60.6m-71.2 33.2c-1-2-2.3-2.4-4.2-1.3-4.3 3.1-8.9 6.2-13.6 9.2-2 1.5-2.7 3.3-2.2 5.5l11.5 32c-15.7 9.4-19.4 11.2-35 18.9l-11.5-32c-1-2-2.6-2.6-4.9-1.7-5.4 2.4-10.7 4.8-16.1 6.9-1 .4-3.3 1.8-2.6 4.9l30.9 85.9c1 2 2.6 2.6 5 1.9 5.4-2.2 10.8-4.5 16.1-7 2.2-1.3 3-2.9 2.5-5.1l-12.1-33.7c11.6-5.5 23-11.6 34-18.3.3-.2.7-.4 1-.6L304 238c1 2 2.5 2.4 4.6 1.3 4.6-2.9 9.2-6 13.6-9.2 1.8-1.5 2.4-3.3 1.8-5.5l-30.9-85.8zm-80.8 76.6c-.8-1.9-2.8-2.7-5-2.1-5.2 1.8-10.5 3.5-15.7 5-1.8.6-3.3 2.2-2.6 4.5l20.4 56.7c.8 1.9 2.8 2.8 5 2.2 5.2-1.6 10.5-3.3 15.7-5 2.2-.9 3.2-2.7 2.6-4.7l-20.4-56.6zm-24-29.8c-7.3 2.4-11.5 9.2-9.6 15.6 3.4 11.8 20.7 13.1 26.8 2 5.4-9.9-3.6-21.6-17.2-17.6m-45.4 58.7c-4.1.4-11.9 1.3-17.3-2.9-4-3.1-6.6-10.3-5-14 2-4.5 9.2-5.7 13.9-6.4 4.3-.6 8.7-1.4 13-2.1l8.4 23.2c-4.3.8-8.7 1.5-13 2.2zm22.4-47.2c-1-2-2.6-2.8-5-2.5-11.8 2.8-23.5 5-34.9 6.6-3.3.5-9.5 1.4-15.2 4-24.7 10.9-11.4 46.4 15.2 57.3-2.6 9.6-5.2 19.3-7.7 28.9-.3 2 1.3 4.8 4.7 5.2 5.7 0 11.6-.3 17.6-.7 1.9-.2 1.9-.2 10.6-31.6 4.2-.6 8.3-1.3 12.5-2l9.3 25.9c1 2 2.6 2.9 5 2.7 5.4-1 10.8-2.2 16.2-3.5 2.2-.8 3.1-2.2 2.6-4.3l-30.9-86zm-85.5 10.1c-1-2.1-2.4-3.3-4.5-3.6-4.7-.3-9.1-.7-13.5-1.2-.6-.1-2.6-.1-1.8 3l25 69.3c-7.7-1.1-14.9-2.7-21.5-4.9-.8-.1-2.2-.3-1.3 2.5l4.8 13.3c.9 2.2 2.2 3.5 3.8 4.3 11.2 3.6 24.1 5.7 38.1 6.5.9 0 2.8-.3 2-3.3l-31.1-85.9zm-40.8 20c-.8 2.2-1.6 4.3-2.2 6.3-.1.2-.3.4-.4.6-.8-.3-4.3-7.2-9.1-17.3-.4-.3-.7-.4-1.1-.7l-.5-.3c-.1.1-.3.1-.4.2-.1.6-.1.8.3 2.2L46 274.9c.4 1.2 1.5 3.4 3.1 4.7 2.7 1.7 5.4 3.3 8.3 4.7.1.1.3.1.3.2 1.3.4 1.7-.3 1.1-2.3l-19.8-55z" fill="#70e2d2"/><path d="M36.4 234.2c.1-.2.3-.4.4-.6.6-2.1 1.4-4.2 2.2-6.3.3-.9.7-1.7 1.1-2.6.3-.6.6-1.3.8-1.9.2-.6.7-2.2.1-4.8-8.5-36.3-8.8-37.7-13.3-58.6 25.4 43.3 25.4 43.3 27.1 41.4 2.9-3.7 6.1-7.3 9.5-11 .5-.7 1.5-2.1 1.2-4.8-5.6-33.7-9.4-67.7-15.9-101.3-.6-2.9-2.5-3.4-4.1-2.2-4 3.4-7.7 6.8-11.2 10.3-.5.6-1.7 2.1-1.2 4.8 7.1 37.2 7.3 37.9 11.1 57.2C17.9 111 17.9 111 16.5 112.3c-2.6 3.7-5.1 7.6-7.3 11.5-.3.7-.8 2.1-.3 4.9 8.9 36.5 9.4 38.7 14.5 58.1C16.4 173 9.6 159 2.7 145c-.2-.4-.6-.8-.9-1.1l-.6.6c-.7 3.2-1.1 6.4-1.2 9.7.1 2.2.9 4.7 1.6 6.2C9.7 178.8 20 201.6 27.4 217c4.7 10 8.2 16.9 9 17.2m49.5-68.6c1.3 2.6 3.1 1.9 4 1.3 4-3.1 8.2-6.1 12.4-9.1 1.8-1.5 2.4-3.3 1.8-5.5l-12.5-34c10.1-6.8 20.9-13.1 32.3-19.1l12.5 34c1 2 2.5 2.5 4.8 1.6 5-2.6 10.3-5 15.5-7.5 2.2-1.2 2.9-2.9 2.4-5l-31.9-86.7c-1.5-3-4.1-2.1-4.9-1.8-5.2 2.3-10.4 4.8-15.5 7.5-2.1 1.3-2.8 3-2.2 5.2L116.5 79c-11.1 5.8-21.9 12.1-32.3 19.1L72.3 65.7c-1-2-2.4-2.4-4.3-1.4-4.3 2.9-8.5 6-12.4 9.1-1.7 1.5-2.1 3.3-1.5 5.6l31.8 86.6zM153 55.1c-2.2 1-3.1 2.9-2.6 5l21 57.2c.8 1.9 2.8 2.7 5 1.9 5.2-2 10.5-4 15.7-5.8 2.2-.9 3.2-2.7 2.6-4.7l-21-57.2c-1-2.3-3.3-2.7-5.2-2.1-5.1 1.7-10.3 3.7-15.5 5.7m-5.9-9.3c11.7 5.1 25.2-5.9 21-17.1-2.6-6.7-11-10-18.4-7.3-12.7 5-12.6 20-2.6 24.4m74.7-20.6c4.3-.6 13.3-2 18.9 2 4.4 3.3 7.5 11 4.6 15-2.8 4-10 5.4-14.9 6.4-4.7.8-9.4 1.8-14 2.8L207.8 28c4.6-1 9.4-1.9 14-2.8zm-13.3 79.2c1 2 2.7 2.7 5.2 2.3 5.7-1.6 11.4-3.1 17.1-4.4 2.4-.8 3.3-2.2 2.7-4.3l-9.6-26.1c4.5-1 9-1.9 13.5-2.7 32.4 26.3 32.4 26.3 34.2 26.1 6.6-.7 12.9-1.2 19-1.5 3.4-.4 2.9-3.4 1.1-5.4C282.9 80 271 69 261.9 61 284.4 44.2 263 8.4 235 4.2c-8.1-1.2-14.8-.2-18.4.4-12.6 2.2-25 5-37.3 8.5-2.4.9-3.3 2.4-2.7 4.6l31.9 86.7zm137.1-6.1c.5-.3.9-.9.3-2.6L341 82.4c-1-2.2-2.2-3.5-3.9-4.1-6.8-1.7-14.2-3.1-22.2-3.9L289.1 4.5c-1.4-3.1-3.6-3.6-4.4-3.8-4.7-.4-9.4-.6-14.2-.7-2 .2-2.7 1.3-2.2 3.4l31.9 86.7c1 2.1 2.5 3.2 4.7 3.4 10 .2 19.4 1 27.9 2.5 4 .7 7.8 1.5 11.5 2.4.4.1.9.1 1.3-.1M340.5 34c2-4.7-5.9-20.7-12.9-23.9-4.6-2-6.2 2.5-3.6 9.4 3.9 9.8 14.6 19.2 16.5 14.5m17.2 68.7c2.2.9 4.4 1.8 6.5 2.9.8.4 1.7.8 2.4 1.2.3.1.6.1.8.1.3-.4.5-.7-.1-2.4l-15.6-42.3-.8-2.1-4.7-12.8c-1.1-2.7-2.5-4.1-3.3-4.5-2.9-1.5-5.9-2.9-8.9-4.1-1.3-.3-1.7.5-1.1 2.5l21 57.2c.1.3.3.7.5 1.1 1 1.4 2 2.5 3.3 3.2" fill="#3a0e7b"/></g></svg>
