<svg width="380" height="297" xmlns="http://www.w3.org/2000/svg" xmlns:xlink="http://www.w3.org/1999/xlink"><defs><path id="a" d="M.014.383h81.73v112.23H.013z"/><path id="c" d="M0 .441h65.54v153.344H0z"/></defs><g fill="none" fill-rule="evenodd"><path d="M351.819 61.973c-.32-.956-.51-1.466-.702-1.849l.766 2.104c0-.063-.064-.127-.064-.255" fill="#FFFF46"/><g transform="translate(297.752 95.701)"><mask id="b" fill="#fff"><use xlink:href="#a"/></mask><path d="M66.564 9.946a100.193 100.193 0 0 0-6.503-2.869C58.53 6.312 57.573 4.973 57 3.89a9736.28 9736.28 0 0 0 7.778 30.796c-6.44-12.433-7.715-14.856-16.96-32.007-.383.191-.829.127-1.085.127C43.1 1.85 39.274 1.085 35.257.384c-.828 1.084-1.657 2.231-2.55 3.315-1.147 1.53-1.147 1.53 9.628 61.91C33.983 51.58 33.983 51.58 17.15 23.973c-1.02-1.275-1.977-1.402-3.315-.446-3.763 3.38-7.715 6.822-11.987 10.201-1.402 1.148-2.614 4.017-1.21 6.376 14.792 24.61 32.261 47.436 48.01 71.473 1.02 1.275 1.849 1.34 3.187.383a171.248 171.248 0 0 0 10.075-10.585c1.72-2.167 1.72-2.167-10.394-62.418 8.417 14.6 8.672 15.11 23.145 41.124.574.956.574.956 1.658.956.127-.127.319-.383.446-.51 1.913-3.443 3.57-6.822 4.91-10.138.892-2.295-7.014-31.624-15.111-60.443" fill="#70E2D2" mask="url(#b)"/></g><path d="M293.097 138.802c-.956-1.976-2.295-2.359-4.208-1.275-4.335 3.06-8.862 6.185-13.644 9.181-1.977 1.53-2.678 3.316-2.168 5.547l11.54 32.007c-15.748 9.372-19.446 11.22-35.003 18.936l-11.54-32.007c-.957-1.976-2.55-2.55-4.91-1.657-5.355 2.423-10.711 4.782-16.13 6.95-1.02.446-3.252 1.784-2.55 4.909l30.922 85.946c.956 1.977 2.614 2.614 4.973 1.913 5.42-2.232 10.84-4.527 16.131-6.95 2.168-1.275 2.997-2.933 2.487-5.1l-12.114-33.729a368.81 368.81 0 0 0 33.983-18.298c.319-.192.701-.447 1.02-.638L304 238.265c.956 1.977 2.487 2.36 4.59 1.275a254.004 254.004 0 0 0 13.645-9.18c1.785-1.531 2.359-3.317 1.785-5.548l-30.923-86.01zm-80.782 76.574c-.829-1.913-2.804-2.742-5.036-2.104-5.229 1.785-10.457 3.506-15.685 5.037-1.785.573-3.316 2.232-2.614 4.526l20.402 56.682c.83 1.913 2.806 2.805 5.037 2.232 5.229-1.594 10.457-3.252 15.685-5.038 2.168-.892 3.188-2.741 2.614-4.718l-20.403-56.617zM188.342 185.6c-7.268 2.36-11.476 9.182-9.627 15.557 3.443 11.796 20.72 13.07 26.778 1.977 5.42-9.818-3.634-21.55-17.15-17.534m-45.397 58.658c-4.144.446-11.923 1.34-17.278-2.869-4.017-3.124-6.631-10.328-5.037-13.962 1.976-4.464 9.181-5.676 13.9-6.44a548.394 548.394 0 0 0 13.006-2.105l8.352 23.209c-4.335.828-8.67 1.53-12.943 2.167zm22.38-47.117c-.957-2.04-2.615-2.806-5.037-2.487-11.796 2.806-23.527 5.038-34.94 6.567-3.315.51-9.5 1.403-15.238 3.953-24.739 10.904-11.413 46.416 15.174 57.255a2430.21 2430.21 0 0 0-7.65 28.947c-.32 1.976 1.274 4.845 4.717 5.164 5.739 0 11.604-.254 17.598-.701 1.912-.191 1.912-.191 10.647-31.56a283.136 283.136 0 0 0 12.497-2.041l9.309 25.887c.956 2.04 2.614 2.932 4.973 2.677 5.356-1.02 10.775-2.232 16.194-3.507 2.232-.764 3.125-2.167 2.615-4.336l-30.86-85.818zm-85.5 10.01c-.957-2.104-2.423-3.252-4.464-3.57-4.654-.255-9.117-.702-13.516-1.212-.638-.064-2.614-.064-1.786 2.996l24.93 69.306c-7.651-1.147-14.92-2.741-21.55-4.91-.766-.127-2.168-.318-1.34 2.55l4.783 13.263c.892 2.167 2.167 3.507 3.825 4.271 11.222 3.571 24.1 5.739 38.064 6.504.892 0 2.805-.32 2.04-3.251L79.826 207.15zm-40.87 20.084c-.829 2.167-1.594 4.271-2.167 6.312-.128.19-.256.447-.383.574-.765-.319-4.272-7.205-9.117-17.28-.383-.253-.702-.445-1.084-.7l-.51-.255c-.128.064-.32.127-.383.191-.128.638-.128.765.255 2.168l20.403 56.681c.446 1.211 1.466 3.38 3.124 4.718a78.265 78.265 0 0 0 8.288 4.719c.128.063.256.127.32.19 1.338.447 1.72-.318 1.083-2.294l-19.829-55.024z" fill="#70E2D2"/><g transform="translate(0 80.4)"><mask id="d" fill="#fff"><use xlink:href="#c"/></mask><path d="M36.406 153.785c.127-.191.255-.446.383-.573a82.023 82.023 0 0 1 2.167-6.313c.32-.892.702-1.721 1.084-2.613.255-.638.574-1.275.83-1.913.19-.638.7-2.168.127-4.846-8.48-36.278-8.8-37.745-13.326-58.594 25.44 43.292 25.44 43.292 27.097 41.379 2.933-3.698 6.121-7.332 9.5-10.966.51-.702 1.53-2.105 1.212-4.782-5.61-33.729-9.436-67.712-15.94-101.312-.574-2.87-2.55-3.443-4.08-2.168-3.953 3.379-7.715 6.822-11.222 10.329-.51.637-1.658 2.104-1.211 4.845 7.14 37.235 7.268 37.937 11.094 57.192C17.852 30.668 17.852 30.668 16.45 31.943a114.989 114.989 0 0 0-7.269 11.54c-.255.701-.829 2.104-.255 4.91 8.926 36.533 9.436 38.7 14.473 58.083C16.386 92.577 9.627 78.55 2.678 64.587c-.191-.382-.574-.829-.893-1.084-.191.192-.382.447-.574.638A58.348 58.348 0 0 0 0 73.833c.127 2.231.893 4.653 1.594 6.247 8.097 18.363 18.426 41.125 25.758 56.49 4.782 10.01 8.289 16.96 9.054 17.215" fill="#3A0E7B" mask="url(#d)"/></g><path d="M85.883 165.644c1.275 2.615 3.06 1.913 4.016 1.275 4.017-3.06 8.161-6.12 12.433-9.053 1.785-1.467 2.36-3.252 1.785-5.484L91.621 118.4c10.074-6.758 20.913-13.134 32.325-19.064l12.497 34.047c1.02 1.977 2.487 2.487 4.782 1.594 5.037-2.55 10.265-5.037 15.493-7.46 2.168-1.21 2.933-2.868 2.423-5.036l-31.88-86.712c-1.466-2.996-4.144-2.104-4.909-1.785a289.588 289.588 0 0 0-15.493 7.46c-2.104 1.339-2.805 2.996-2.231 5.228l11.859 32.326A350.722 350.722 0 0 0 84.16 98.06L72.302 65.735c-.956-1.977-2.359-2.423-4.336-1.403-4.335 2.933-8.48 5.993-12.432 9.054-1.658 1.53-2.104 3.315-1.467 5.61l31.816 86.648zM153.02 55.087c-2.168.957-3.124 2.87-2.55 4.973l21.04 57.192c.829 1.912 2.805 2.677 5.037 1.912 5.164-2.04 10.456-3.953 15.749-5.802 2.231-.892 3.25-2.677 2.613-4.718l-21.04-57.191c-1.02-2.295-3.315-2.742-5.164-2.104a388.243 388.243 0 0 0-15.685 5.738m-5.93-9.309c11.668 5.101 25.185-5.93 21.04-17.087-2.55-6.694-10.966-10.01-18.362-7.268-12.751 4.973-12.624 20.02-2.677 24.355m74.725-20.593c4.335-.638 13.324-2.04 18.872 2.04 4.4 3.252 7.46 10.966 4.59 15.047-2.805 3.953-10.01 5.42-14.855 6.376a363.69 363.69 0 0 0-14.027 2.805l-8.607-23.4c4.654-1.083 9.372-1.976 14.027-2.868zm-13.326 79.187c1.02 1.977 2.741 2.742 5.228 2.296a394.823 394.823 0 0 1 17.087-4.4c2.36-.765 3.252-2.167 2.741-4.335l-9.626-26.141a338.375 338.375 0 0 1 13.516-2.742c32.39 26.269 32.39 26.269 34.175 26.141 6.566-.701 12.88-1.211 19-1.466 3.38-.446 2.933-3.443 1.148-5.356-8.863-8.352-20.786-19.319-29.84-27.416 22.444-16.768 1.084-52.537-26.905-56.745-8.098-1.211-14.857-.191-18.427.383a362.36 362.36 0 0 0-37.298 8.543c-2.36.893-3.252 2.423-2.678 4.59l31.88 86.648zm137.08-6.056c.51-.255.893-.893.32-2.55l-4.91-13.39c-.957-2.168-2.232-3.507-3.89-4.144-6.822-1.722-14.218-3.06-22.187-3.89L289.144 4.463c-1.403-3.06-3.57-3.634-4.399-3.762a198.463 198.463 0 0 0-14.155-.7c-1.976.19-2.74 1.338-2.167 3.378l31.879 86.712c.956 2.104 2.486 3.188 4.718 3.443 10.01.191 19.383 1.02 27.926 2.486 4.017.702 7.842 1.467 11.477 2.423.318.064.765.064 1.147-.127m-5.036-64.269c1.976-4.654-5.93-20.722-12.944-23.91-4.59-1.976-6.248 2.487-3.57 9.373 3.889 9.819 14.537 19.191 16.514 14.537m17.215 68.668a76.598 76.598 0 0 1 6.502 2.869c.83.383 1.659.829 2.424 1.211.254.064.573.128.829.128.254-.383.51-.701-.065-2.423l-15.556-42.336-.765-2.104-4.655-12.751c-1.084-2.742-2.55-4.145-3.252-4.527a104.756 104.756 0 0 0-8.926-4.144c-1.338-.32-1.721.51-1.083 2.55l21.04 57.191c.127.32.319.702.51 1.148a6.804 6.804 0 0 0 2.997 3.188" fill="#3A0E7B"/></g></svg>
