<svg xmlns="http://www.w3.org/2000/svg" viewBox="0 0 137 30"><path fill="#FFF" d="M103 29.7V4.9c0-.3 0-.6-.1-.8-.1-1.1-.6-2-1.5-2.7-1-1-2.2-1.4-3.7-1.4H67v30h7.4V6.7h6.9V30h7.4V6.7h6.9V30h7.4v-.3zM0 0v6.7h13.1c0 .1-.1.2-.1.3L5.4 17.9C3.7 20.4.1 25.6 0 25.7V30h23v-6.6H10.2c0-.1.1-.1.1-.2 4.2-6.1 8.4-12.3 12.6-18.4.1-.3.1-.4.1-.6V0H0zm55 30V0h-7.4v23.3h-7c0-1.1-.1-23.1-.1-23.3H33v.3c0 1.9.1 15 .1 18.2v6.9c0 .4.1.8.2 1.3.6 1.7 1.8 2.8 3.7 3.2.2 0 .6.1 1 .1h17zm67-14v8h8v-8h-8zm-3.1 14c-.3 0-.7-.1-1-.1-2-.5-3.3-1.6-3.8-3.5-.1-.4-.1-.8-.1-1.2v-11c0-.8.1-1.5.5-2.3.5-1 1.3-1.6 2.4-1.7.3-.1.6-.1.9-.1h11.5V6.6h-14l-.1-6.6h17.2c.4 0 1 0 1 .1 1.9.3 3.2 1.4 3.4 3.2 0 0 .1.7.1.9V30h-18z"/></svg>
